<mxfile host="app.diagrams.net" modified="2020-07-25T11:47:58.599Z" agent="5.0 (X11; Linux x86_64) AppleWebKit/537.36 (KHTML, like Gecko) Chrome/80.0.3987.162 Safari/537.36" etag="iqu2BnCH-MfyYpPe4Y_l" version="13.3.0" type="github">
  <diagram id="Hk_NM4AyCi-9B7GR81YK" name="Page-1">
    <mxGraphModel dx="1422" dy="721" grid="1" gridSize="10" guides="1" tooltips="1" connect="1" arrows="1" fold="1" page="1" pageScale="1" pageWidth="827" pageHeight="1169" math="0" shadow="0">
      <root>
        <mxCell id="0" />
        <mxCell id="1" parent="0" />
        <mxCell id="T8VzuJoP5bCpDIDf60vD-1" value="TestRunner" style="rounded=0;whiteSpace=wrap;html=1;align=left;verticalAlign=top;fillColor=#d5e8d4;strokeColor=#82b366;" parent="1" vertex="1">
          <mxGeometry x="140" y="360" width="140" height="70" as="geometry" />
        </mxCell>
        <mxCell id="T8VzuJoP5bCpDIDf60vD-3" value="TestService" style="rounded=0;whiteSpace=wrap;html=1;align=left;verticalAlign=top;fillColor=#d5e8d4;strokeColor=#82b366;" parent="1" vertex="1">
          <mxGeometry x="140" y="220" width="260" height="90" as="geometry" />
        </mxCell>
        <mxCell id="T8VzuJoP5bCpDIDf60vD-4" value="Http/Rest Interface" style="rounded=0;whiteSpace=wrap;html=1;" parent="1" vertex="1">
          <mxGeometry x="260" y="230" width="120" height="20" as="geometry" />
        </mxCell>
        <mxCell id="T8VzuJoP5bCpDIDf60vD-5" value="OPC UA client" style="rounded=0;whiteSpace=wrap;html=1;" parent="1" vertex="1">
          <mxGeometry x="150" y="400" width="90" height="20" as="geometry" />
        </mxCell>
        <mxCell id="T8VzuJoP5bCpDIDf60vD-7" value="OPC UA Server / Device under test" style="rounded=0;whiteSpace=wrap;html=1;" parent="1" vertex="1">
          <mxGeometry x="140" y="500" width="100" height="50" as="geometry" />
        </mxCell>
        <mxCell id="T8VzuJoP5bCpDIDf60vD-8" value="CI/CD Server (e.g. jenkins)" style="rounded=0;whiteSpace=wrap;html=1;align=left;verticalAlign=top;" parent="1" vertex="1">
          <mxGeometry x="140" y="50" width="260" height="90" as="geometry" />
        </mxCell>
        <mxCell id="T8VzuJoP5bCpDIDf60vD-9" value="Persistence (e.g. mySql, influx)" style="rounded=0;whiteSpace=wrap;html=1;align=left;verticalAlign=top;" parent="1" vertex="1">
          <mxGeometry x="660" y="220" width="200" height="90" as="geometry" />
        </mxCell>
        <mxCell id="T8VzuJoP5bCpDIDf60vD-10" value="newJob, getResult" style="endArrow=classic;html=1;entryX=0.5;entryY=0;entryDx=0;entryDy=0;exitX=0.5;exitY=1;exitDx=0;exitDy=0;" parent="1" edge="1">
          <mxGeometry x="-0.6698" y="-52" width="50" height="50" relative="1" as="geometry">
            <mxPoint x="267" y="140" as="sourcePoint" />
            <mxPoint x="317" y="230" as="targetPoint" />
            <mxPoint as="offset" />
          </mxGeometry>
        </mxCell>
        <mxCell id="T8VzuJoP5bCpDIDf60vD-11" value="forks TestRunner" style="endArrow=classic;html=1;entryX=0.5;entryY=0;entryDx=0;entryDy=0;exitX=0.25;exitY=1;exitDx=0;exitDy=0;" parent="1" source="T8VzuJoP5bCpDIDf60vD-3" target="T8VzuJoP5bCpDIDf60vD-1" edge="1">
          <mxGeometry x="0.0099" y="-48" width="50" height="50" relative="1" as="geometry">
            <mxPoint x="380" y="350" as="sourcePoint" />
            <mxPoint x="430" y="440" as="targetPoint" />
            <mxPoint as="offset" />
          </mxGeometry>
        </mxCell>
        <mxCell id="T8VzuJoP5bCpDIDf60vD-12" value="" style="endArrow=classic;html=1;entryX=0.5;entryY=0;entryDx=0;entryDy=0;exitX=0.5;exitY=1;exitDx=0;exitDy=0;" parent="1" source="T8VzuJoP5bCpDIDf60vD-1" target="T8VzuJoP5bCpDIDf60vD-7" edge="1">
          <mxGeometry width="50" height="50" relative="1" as="geometry">
            <mxPoint x="290" y="310" as="sourcePoint" />
            <mxPoint x="340" y="260" as="targetPoint" />
          </mxGeometry>
        </mxCell>
        <mxCell id="T8VzuJoP5bCpDIDf60vD-13" value="send requests" style="edgeLabel;html=1;align=center;verticalAlign=middle;resizable=0;points=[];" parent="T8VzuJoP5bCpDIDf60vD-12" vertex="1" connectable="0">
          <mxGeometry x="-0.4649" y="2" relative="1" as="geometry">
            <mxPoint x="-46.7" y="11.18" as="offset" />
          </mxGeometry>
        </mxCell>
        <mxCell id="T8VzuJoP5bCpDIDf60vD-14" value="Visualization (e.g. grafana)" style="rounded=0;whiteSpace=wrap;html=1;align=left;verticalAlign=top;" parent="1" vertex="1">
          <mxGeometry x="660" y="50" width="200" height="90" as="geometry" />
        </mxCell>
        <mxCell id="T8VzuJoP5bCpDIDf60vD-15" value="" style="endArrow=classic;html=1;entryX=0.5;entryY=0;entryDx=0;entryDy=0;exitX=0.5;exitY=1;exitDx=0;exitDy=0;" parent="1" source="T8VzuJoP5bCpDIDf60vD-14" target="T8VzuJoP5bCpDIDf60vD-9" edge="1">
          <mxGeometry width="50" height="50" relative="1" as="geometry">
            <mxPoint x="430" y="310" as="sourcePoint" />
            <mxPoint x="480" y="260" as="targetPoint" />
          </mxGeometry>
        </mxCell>
        <mxCell id="Eww70WBxBRKFjmFf7Wob-1" value="InfluxDBImporter" style="rounded=0;whiteSpace=wrap;html=1;align=left;verticalAlign=top;fillColor=#d5e8d4;strokeColor=#82b366;" vertex="1" parent="1">
          <mxGeometry x="480" y="160" width="140" height="70" as="geometry" />
        </mxCell>
        <mxCell id="Eww70WBxBRKFjmFf7Wob-3" value="getFinishedJobs" style="endArrow=classic;html=1;exitX=0;exitY=0.5;exitDx=0;exitDy=0;entryX=1;entryY=0;entryDx=0;entryDy=0;" edge="1" parent="1" source="Eww70WBxBRKFjmFf7Wob-1" target="T8VzuJoP5bCpDIDf60vD-4">
          <mxGeometry x="-0.1403" y="-21" width="50" height="50" relative="1" as="geometry">
            <mxPoint x="277" y="150" as="sourcePoint" />
            <mxPoint x="327" y="240" as="targetPoint" />
            <mxPoint as="offset" />
          </mxGeometry>
        </mxCell>
        <mxCell id="Eww70WBxBRKFjmFf7Wob-4" value="persist" style="endArrow=classic;html=1;exitX=0.75;exitY=1;exitDx=0;exitDy=0;entryX=0;entryY=0.5;entryDx=0;entryDy=0;" edge="1" parent="1" source="Eww70WBxBRKFjmFf7Wob-1" target="T8VzuJoP5bCpDIDf60vD-9">
          <mxGeometry x="-0.1403" y="-21" width="50" height="50" relative="1" as="geometry">
            <mxPoint x="490" y="205" as="sourcePoint" />
            <mxPoint x="390" y="240" as="targetPoint" />
            <mxPoint as="offset" />
          </mxGeometry>
        </mxCell>
      </root>
    </mxGraphModel>
  </diagram>
</mxfile>
